# MagicaVoxel @ Ephtracy

# group
o 

# material
mtllib museum - headset.mtl
usemtl palette

# normals
vn -1 0 0
vn 1 0 0
vn 0 0 1
vn 0 0 -1
vn 0 -1 0
vn 0 1 0

# texcoords
vt 0.978516 0.5
vt 0.990234 0.5

# verts
v 6.8 2.6 -5.5
v 6.8 2.6 -5.7
v 6.8 2.8 -5.5
v 6.8 2.8 -5.7
v 6.9 2.4 -5.5
v 6.9 2.4 -5.7
v 6.9 2.5 -5.4
v 6.9 2.5 -5.5
v 6.9 2.5 -5.7
v 6.9 2.5 -5.8
v 6.9 2.6 -5.3
v 6.9 2.6 -5.4
v 6.9 2.6 -5.5
v 6.9 2.6 -5.7
v 6.9 2.6 -5.8
v 6.9 2.6 -5.9
v 6.9 2.8 -5.3
v 6.9 2.8 -5.4
v 6.9 2.8 -5.5
v 6.9 2.8 -5.7
v 6.9 2.8 -5.8
v 6.9 2.8 -5.9
v 6.9 2.9 -5.4
v 6.9 2.9 -5.5
v 6.9 2.9 -5.7
v 6.9 2.9 -5.8
v 6.9 3 -5.5
v 6.9 3 -5.7
v 7 3 -5.5
v 7 3 -5.7
v 7 3.1 -5.5
v 7 3.1 -5.7
v 7.1 3.1 -5.5
v 7.1 3.1 -5.7
v 7.1 3.2 -5.5
v 7.1 3.2 -5.7
v 7.2 3.2 -5.5
v 7.2 3.2 -5.7
v 7.2 3.3 -5.5
v 7.2 3.3 -5.7
v 7.6 3.1 -5.5
v 7.6 3.1 -5.7
v 7.6 3.2 -5.5
v 7.6 3.2 -5.7
v 7.7 3 -5.5
v 7.7 3 -5.7
v 7.7 3.1 -5.5
v 7.7 3.1 -5.7
v 7.8 2.9 -5.5
v 7.8 2.9 -5.7
v 7.8 3 -5.5
v 7.8 3 -5.7
v 7.9 2.4 -5.5
v 7.9 2.4 -5.7
v 7.9 2.5 -5.4
v 7.9 2.5 -5.5
v 7.9 2.5 -5.7
v 7.9 2.5 -5.8
v 7.9 2.6 -5.3
v 7.9 2.6 -5.4
v 7.9 2.6 -5.8
v 7.9 2.6 -5.9
v 7.9 2.8 -5.3
v 7.9 2.8 -5.4
v 7.9 2.8 -5.8
v 7.9 2.8 -5.9
v 7.9 2.9 -5.4
v 7.9 2.9 -5.5
v 7.9 2.9 -5.7
v 7.9 2.9 -5.8
v 7 2.4 -5.5
v 7 2.4 -5.7
v 7 2.5 -5.4
v 7 2.5 -5.5
v 7 2.5 -5.7
v 7 2.5 -5.8
v 7 2.6 -5.3
v 7 2.6 -5.4
v 7 2.6 -5.8
v 7 2.6 -5.9
v 7 2.8 -5.3
v 7 2.8 -5.4
v 7 2.8 -5.8
v 7 2.8 -5.9
v 7 2.9 -5.4
v 7 2.9 -5.5
v 7 2.9 -5.7
v 7 2.9 -5.8
v 7.1 2.9 -5.5
v 7.1 2.9 -5.7
v 7.1 3 -5.5
v 7.1 3 -5.7
v 7.2 3 -5.5
v 7.2 3 -5.7
v 7.2 3.1 -5.5
v 7.2 3.1 -5.7
v 7.3 3.1 -5.5
v 7.3 3.1 -5.7
v 7.3 3.2 -5.5
v 7.3 3.2 -5.7
v 7.7 3.2 -5.5
v 7.7 3.2 -5.7
v 7.7 3.3 -5.5
v 7.7 3.3 -5.7
v 7.8 3.1 -5.5
v 7.8 3.1 -5.7
v 7.8 3.2 -5.5
v 7.8 3.2 -5.7
v 7.9 3 -5.5
v 7.9 3 -5.7
v 7.9 3.1 -5.5
v 7.9 3.1 -5.7
v 8 2.4 -5.5
v 8 2.4 -5.7
v 8 2.5 -5.4
v 8 2.5 -5.5
v 8 2.5 -5.7
v 8 2.5 -5.8
v 8 2.6 -5.3
v 8 2.6 -5.4
v 8 2.6 -5.5
v 8 2.6 -5.7
v 8 2.6 -5.8
v 8 2.6 -5.9
v 8 2.8 -5.3
v 8 2.8 -5.4
v 8 2.8 -5.5
v 8 2.8 -5.7
v 8 2.8 -5.8
v 8 2.8 -5.9
v 8 2.9 -5.4
v 8 2.9 -5.5
v 8 2.9 -5.7
v 8 2.9 -5.8
v 8 3 -5.5
v 8 3 -5.7
v 8.1 2.6 -5.5
v 8.1 2.6 -5.7
v 8.1 2.8 -5.5
v 8.1 2.8 -5.7
v 6.9 2.6 -5.3
v 6.9 2.8 -5.3
v 7 2.6 -5.3
v 7 2.8 -5.3
v 7.9 2.6 -5.3
v 7.9 2.8 -5.3
v 8 2.6 -5.3
v 8 2.8 -5.3
v 6.9 2.5 -5.4
v 6.9 2.6 -5.4
v 6.9 2.8 -5.4
v 6.9 2.9 -5.4
v 7 2.5 -5.4
v 7 2.6 -5.4
v 7 2.8 -5.4
v 7 2.9 -5.4
v 7.9 2.5 -5.4
v 7.9 2.6 -5.4
v 7.9 2.8 -5.4
v 7.9 2.9 -5.4
v 8 2.5 -5.4
v 8 2.6 -5.4
v 8 2.8 -5.4
v 8 2.9 -5.4
v 6.8 2.6 -5.5
v 6.8 2.8 -5.5
v 6.9 2.4 -5.5
v 6.9 2.5 -5.5
v 6.9 2.6 -5.5
v 6.9 2.8 -5.5
v 6.9 2.9 -5.5
v 6.9 3 -5.5
v 7 2.4 -5.5
v 7 2.5 -5.5
v 7 2.9 -5.5
v 7 3 -5.5
v 7 3.1 -5.5
v 7.1 2.9 -5.5
v 7.1 3 -5.5
v 7.1 3.1 -5.5
v 7.1 3.2 -5.5
v 7.2 3 -5.5
v 7.2 3.1 -5.5
v 7.2 3.2 -5.5
v 7.2 3.3 -5.5
v 7.3 3.1 -5.5
v 7.3 3.2 -5.5
v 7.6 3.1 -5.5
v 7.6 3.2 -5.5
v 7.7 3 -5.5
v 7.7 3.1 -5.5
v 7.7 3.2 -5.5
v 7.7 3.3 -5.5
v 7.8 2.9 -5.5
v 7.8 3 -5.5
v 7.8 3.1 -5.5
v 7.8 3.2 -5.5
v 7.9 2.4 -5.5
v 7.9 2.5 -5.5
v 7.9 2.9 -5.5
v 7.9 3 -5.5
v 7.9 3.1 -5.5
v 8 2.4 -5.5
v 8 2.5 -5.5
v 8 2.6 -5.5
v 8 2.8 -5.5
v 8 2.9 -5.5
v 8 3 -5.5
v 8.1 2.6 -5.5
v 8.1 2.8 -5.5
v 6.8 2.6 -5.7
v 6.8 2.8 -5.7
v 6.9 2.4 -5.7
v 6.9 2.5 -5.7
v 6.9 2.6 -5.7
v 6.9 2.8 -5.7
v 6.9 2.9 -5.7
v 6.9 3 -5.7
v 7 2.4 -5.7
v 7 2.5 -5.7
v 7 2.9 -5.7
v 7 3 -5.7
v 7 3.1 -5.7
v 7.1 2.9 -5.7
v 7.1 3 -5.7
v 7.1 3.1 -5.7
v 7.1 3.2 -5.7
v 7.2 3 -5.7
v 7.2 3.1 -5.7
v 7.2 3.2 -5.7
v 7.2 3.3 -5.7
v 7.3 3.1 -5.7
v 7.3 3.2 -5.7
v 7.6 3.1 -5.7
v 7.6 3.2 -5.7
v 7.7 3 -5.7
v 7.7 3.1 -5.7
v 7.7 3.2 -5.7
v 7.7 3.3 -5.7
v 7.8 2.9 -5.7
v 7.8 3 -5.7
v 7.8 3.1 -5.7
v 7.8 3.2 -5.7
v 7.9 2.4 -5.7
v 7.9 2.5 -5.7
v 7.9 2.9 -5.7
v 7.9 3 -5.7
v 7.9 3.1 -5.7
v 8 2.4 -5.7
v 8 2.5 -5.7
v 8 2.6 -5.7
v 8 2.8 -5.7
v 8 2.9 -5.7
v 8 3 -5.7
v 8.1 2.6 -5.7
v 8.1 2.8 -5.7
v 6.9 2.5 -5.8
v 6.9 2.6 -5.8
v 6.9 2.8 -5.8
v 6.9 2.9 -5.8
v 7 2.5 -5.8
v 7 2.6 -5.8
v 7 2.8 -5.8
v 7 2.9 -5.8
v 7.9 2.5 -5.8
v 7.9 2.6 -5.8
v 7.9 2.8 -5.8
v 7.9 2.9 -5.8
v 8 2.5 -5.8
v 8 2.6 -5.8
v 8 2.8 -5.8
v 8 2.9 -5.8
v 6.9 2.6 -5.9
v 6.9 2.8 -5.9
v 7 2.6 -5.9
v 7 2.8 -5.9
v 7.9 2.6 -5.9
v 7.9 2.8 -5.9
v 8 2.6 -5.9
v 8 2.8 -5.9
v 6.9 2.4 -5.5
v 7 2.4 -5.5
v 7.9 2.4 -5.5
v 8 2.4 -5.5
v 6.9 2.4 -5.7
v 7 2.4 -5.7
v 7.9 2.4 -5.7
v 8 2.4 -5.7
v 6.9 2.5 -5.4
v 7 2.5 -5.4
v 7.9 2.5 -5.4
v 8 2.5 -5.4
v 6.9 2.5 -5.5
v 7 2.5 -5.5
v 7.9 2.5 -5.5
v 8 2.5 -5.5
v 6.9 2.5 -5.7
v 7 2.5 -5.7
v 7.9 2.5 -5.7
v 8 2.5 -5.7
v 6.9 2.5 -5.8
v 7 2.5 -5.8
v 7.9 2.5 -5.8
v 8 2.5 -5.8
v 6.9 2.6 -5.3
v 7 2.6 -5.3
v 7.9 2.6 -5.3
v 8 2.6 -5.3
v 6.9 2.6 -5.4
v 7 2.6 -5.4
v 7.9 2.6 -5.4
v 8 2.6 -5.4
v 6.8 2.6 -5.5
v 6.9 2.6 -5.5
v 8 2.6 -5.5
v 8.1 2.6 -5.5
v 6.8 2.6 -5.7
v 6.9 2.6 -5.7
v 8 2.6 -5.7
v 8.1 2.6 -5.7
v 6.9 2.6 -5.8
v 7 2.6 -5.8
v 7.9 2.6 -5.8
v 8 2.6 -5.8
v 6.9 2.6 -5.9
v 7 2.6 -5.9
v 7.9 2.6 -5.9
v 8 2.6 -5.9
v 7 2.9 -5.5
v 7.1 2.9 -5.5
v 7.8 2.9 -5.5
v 7.9 2.9 -5.5
v 7 2.9 -5.7
v 7.1 2.9 -5.7
v 7.8 2.9 -5.7
v 7.9 2.9 -5.7
v 7.1 3 -5.5
v 7.2 3 -5.5
v 7.7 3 -5.5
v 7.8 3 -5.5
v 7.1 3 -5.7
v 7.2 3 -5.7
v 7.7 3 -5.7
v 7.8 3 -5.7
v 7.2 3.1 -5.5
v 7.3 3.1 -5.5
v 7.6 3.1 -5.5
v 7.7 3.1 -5.5
v 7.2 3.1 -5.7
v 7.3 3.1 -5.7
v 7.6 3.1 -5.7
v 7.7 3.1 -5.7
v 7.3 3.2 -5.5
v 7.6 3.2 -5.5
v 7.3 3.2 -5.7
v 7.6 3.2 -5.7
v 6.9 2.8 -5.3
v 7 2.8 -5.3
v 7.9 2.8 -5.3
v 8 2.8 -5.3
v 6.9 2.8 -5.4
v 7 2.8 -5.4
v 7.9 2.8 -5.4
v 8 2.8 -5.4
v 6.8 2.8 -5.5
v 6.9 2.8 -5.5
v 8 2.8 -5.5
v 8.1 2.8 -5.5
v 6.8 2.8 -5.7
v 6.9 2.8 -5.7
v 8 2.8 -5.7
v 8.1 2.8 -5.7
v 6.9 2.8 -5.8
v 7 2.8 -5.8
v 7.9 2.8 -5.8
v 8 2.8 -5.8
v 6.9 2.8 -5.9
v 7 2.8 -5.9
v 7.9 2.8 -5.9
v 8 2.8 -5.9
v 6.9 2.9 -5.4
v 7 2.9 -5.4
v 7.9 2.9 -5.4
v 8 2.9 -5.4
v 6.9 2.9 -5.5
v 7 2.9 -5.5
v 7.9 2.9 -5.5
v 8 2.9 -5.5
v 6.9 2.9 -5.7
v 7 2.9 -5.7
v 7.9 2.9 -5.7
v 8 2.9 -5.7
v 6.9 2.9 -5.8
v 7 2.9 -5.8
v 7.9 2.9 -5.8
v 8 2.9 -5.8
v 6.9 3 -5.5
v 7 3 -5.5
v 7.9 3 -5.5
v 8 3 -5.5
v 6.9 3 -5.7
v 7 3 -5.7
v 7.9 3 -5.7
v 8 3 -5.7
v 7 3.1 -5.5
v 7.1 3.1 -5.5
v 7.8 3.1 -5.5
v 7.9 3.1 -5.5
v 7 3.1 -5.7
v 7.1 3.1 -5.7
v 7.8 3.1 -5.7
v 7.9 3.1 -5.7
v 7.1 3.2 -5.5
v 7.2 3.2 -5.5
v 7.7 3.2 -5.5
v 7.8 3.2 -5.5
v 7.1 3.2 -5.7
v 7.2 3.2 -5.7
v 7.7 3.2 -5.7
v 7.8 3.2 -5.7
v 7.2 3.3 -5.5
v 7.7 3.3 -5.5
v 7.2 3.3 -5.7
v 7.7 3.3 -5.7

# faces
f 3/1/1 2/1/1 1/1/1
f 4/1/1 2/1/1 3/1/1
f 8/2/1 6/2/1 5/2/1
f 9/2/1 6/2/1 8/2/1
f 12/2/1 8/2/1 7/2/1
f 12/2/1 10/2/1 9/2/1
f 12/2/1 9/2/1 8/2/1
f 13/2/1 10/2/1 12/2/1
f 14/2/1 10/2/1 13/2/1
f 15/2/1 10/2/1 14/2/1
f 17/2/1 12/2/1 11/2/1
f 17/2/1 13/2/1 12/2/1
f 18/2/1 13/2/1 17/2/1
f 19/2/1 13/2/1 18/2/1
f 20/2/1 16/2/1 15/2/1
f 20/2/1 15/2/1 14/2/1
f 21/2/1 16/2/1 20/2/1
f 22/2/1 16/2/1 21/2/1
f 23/2/1 19/2/1 18/2/1
f 23/2/1 21/2/1 20/2/1
f 23/2/1 20/2/1 19/2/1
f 24/2/1 21/2/1 23/2/1
f 25/2/1 21/2/1 24/2/1
f 26/2/1 21/2/1 25/2/1
f 27/2/1 25/2/1 24/2/1
f 28/2/1 25/2/1 27/2/1
f 31/2/1 30/2/1 29/2/1
f 32/2/1 30/2/1 31/2/1
f 35/2/1 34/2/1 33/2/1
f 36/2/1 34/2/1 35/2/1
f 39/2/1 38/2/1 37/2/1
f 40/2/1 38/2/1 39/2/1
f 43/1/1 42/1/1 41/1/1
f 44/1/1 42/1/1 43/1/1
f 47/1/1 46/1/1 45/1/1
f 48/1/1 46/1/1 47/1/1
f 51/1/1 50/1/1 49/1/1
f 52/1/1 50/1/1 51/1/1
f 56/2/1 54/2/1 53/2/1
f 57/2/1 54/2/1 56/2/1
f 60/2/1 56/2/1 55/2/1
f 60/2/1 58/2/1 57/2/1
f 60/2/1 57/2/1 56/2/1
f 61/2/1 58/2/1 60/2/1
f 63/2/1 60/2/1 59/2/1
f 63/2/1 62/2/1 61/2/1
f 63/2/1 61/2/1 60/2/1
f 64/2/1 62/2/1 63/2/1
f 65/2/1 62/2/1 64/2/1
f 66/2/1 62/2/1 65/2/1
f 67/2/1 65/2/1 64/2/1
f 68/2/1 65/2/1 67/2/1
f 69/2/1 65/2/1 68/2/1
f 70/2/1 65/2/1 69/2/1
f 71/2/2 72/2/2 74/2/2
f 74/2/2 72/2/2 75/2/2
f 73/2/2 74/2/2 78/2/2
f 75/2/2 76/2/2 78/2/2
f 74/2/2 75/2/2 78/2/2
f 78/2/2 76/2/2 79/2/2
f 77/2/2 78/2/2 81/2/2
f 79/2/2 80/2/2 81/2/2
f 78/2/2 79/2/2 81/2/2
f 81/2/2 80/2/2 82/2/2
f 82/2/2 80/2/2 83/2/2
f 83/2/2 80/2/2 84/2/2
f 82/2/2 83/2/2 85/2/2
f 85/2/2 83/2/2 86/2/2
f 86/2/2 83/2/2 87/2/2
f 87/2/2 83/2/2 88/2/2
f 89/1/2 90/1/2 91/1/2
f 91/1/2 90/1/2 92/1/2
f 93/1/2 94/1/2 95/1/2
f 95/1/2 94/1/2 96/1/2
f 97/1/2 98/1/2 99/1/2
f 99/1/2 98/1/2 100/1/2
f 101/2/2 102/2/2 103/2/2
f 103/2/2 102/2/2 104/2/2
f 105/2/2 106/2/2 107/2/2
f 107/2/2 106/2/2 108/2/2
f 109/2/2 110/2/2 111/2/2
f 111/2/2 110/2/2 112/2/2
f 113/2/2 114/2/2 116/2/2
f 116/2/2 114/2/2 117/2/2
f 115/2/2 116/2/2 120/2/2
f 117/2/2 118/2/2 120/2/2
f 116/2/2 117/2/2 120/2/2
f 120/2/2 118/2/2 121/2/2
f 121/2/2 118/2/2 122/2/2
f 122/2/2 118/2/2 123/2/2
f 119/2/2 120/2/2 125/2/2
f 120/2/2 121/2/2 125/2/2
f 125/2/2 121/2/2 126/2/2
f 126/2/2 121/2/2 127/2/2
f 123/2/2 124/2/2 128/2/2
f 122/2/2 123/2/2 128/2/2
f 128/2/2 124/2/2 129/2/2
f 129/2/2 124/2/2 130/2/2
f 126/2/2 127/2/2 131/2/2
f 128/2/2 129/2/2 131/2/2
f 127/2/2 128/2/2 131/2/2
f 131/2/2 129/2/2 132/2/2
f 132/2/2 129/2/2 133/2/2
f 133/2/2 129/2/2 134/2/2
f 132/2/2 133/2/2 135/2/2
f 135/2/2 133/2/2 136/2/2
f 137/1/2 138/1/2 139/1/2
f 139/1/2 138/1/2 140/1/2
f 143/2/3 142/2/3 141/2/3
f 144/2/3 142/2/3 143/2/3
f 147/2/3 146/2/3 145/2/3
f 148/2/3 146/2/3 147/2/3
f 153/2/3 150/2/3 149/2/3
f 154/2/3 150/2/3 153/2/3
f 155/2/3 152/2/3 151/2/3
f 156/2/3 152/2/3 155/2/3
f 161/2/3 158/2/3 157/2/3
f 162/2/3 158/2/3 161/2/3
f 163/2/3 160/2/3 159/2/3
f 164/2/3 160/2/3 163/2/3
f 169/1/3 166/1/3 165/1/3
f 170/1/3 166/1/3 169/1/3
f 173/2/3 168/2/3 167/2/3
f 174/2/3 168/2/3 173/2/3
f 175/2/3 172/2/3 171/2/3
f 176/2/3 172/2/3 175/2/3
f 178/1/3 176/1/3 175/1/3
f 179/2/3 177/2/3 176/2/3
f 179/1/3 176/1/3 178/1/3
f 180/2/3 177/2/3 179/2/3
f 182/1/3 180/1/3 179/1/3
f 183/2/3 181/2/3 180/2/3
f 183/1/3 180/1/3 182/1/3
f 184/2/3 181/2/3 183/2/3
f 186/1/3 184/1/3 183/1/3
f 187/2/3 185/2/3 184/2/3
f 187/1/3 184/1/3 186/1/3
f 189/2/3 185/2/3 187/2/3
f 191/1/3 189/1/3 188/1/3
f 192/2/3 185/2/3 189/2/3
f 192/1/3 189/1/3 191/1/3
f 193/2/3 185/2/3 192/2/3
f 195/1/3 191/1/3 190/1/3
f 196/2/3 192/2/3 191/2/3
f 196/1/3 191/1/3 195/1/3
f 197/2/3 192/2/3 196/2/3
f 200/1/3 195/1/3 194/1/3
f 201/2/3 196/2/3 195/2/3
f 201/1/3 195/1/3 200/1/3
f 202/2/3 196/2/3 201/2/3
f 203/2/3 199/2/3 198/2/3
f 204/2/3 199/2/3 203/2/3
f 207/2/3 201/2/3 200/2/3
f 208/2/3 201/2/3 207/2/3
f 209/1/3 206/1/3 205/1/3
f 210/1/3 206/1/3 209/1/3
f 211/1/4 212/1/4 215/1/4
f 215/1/4 212/1/4 216/1/4
f 213/2/4 214/2/4 219/2/4
f 219/2/4 214/2/4 220/2/4
f 217/2/4 218/2/4 221/2/4
f 221/2/4 218/2/4 222/2/4
f 221/1/4 222/1/4 224/1/4
f 222/2/4 223/2/4 225/2/4
f 224/1/4 222/1/4 225/1/4
f 225/2/4 223/2/4 226/2/4
f 225/1/4 226/1/4 228/1/4
f 226/2/4 227/2/4 229/2/4
f 228/1/4 226/1/4 229/1/4
f 229/2/4 227/2/4 230/2/4
f 229/1/4 230/1/4 232/1/4
f 230/2/4 231/2/4 233/2/4
f 232/1/4 230/1/4 233/1/4
f 233/2/4 231/2/4 235/2/4
f 234/1/4 235/1/4 237/1/4
f 235/2/4 231/2/4 238/2/4
f 237/1/4 235/1/4 238/1/4
f 238/2/4 231/2/4 239/2/4
f 236/1/4 237/1/4 241/1/4
f 237/2/4 238/2/4 242/2/4
f 241/1/4 237/1/4 242/1/4
f 242/2/4 238/2/4 243/2/4
f 240/1/4 241/1/4 246/1/4
f 241/2/4 242/2/4 247/2/4
f 246/1/4 241/1/4 247/1/4
f 247/2/4 242/2/4 248/2/4
f 244/2/4 245/2/4 249/2/4
f 249/2/4 245/2/4 250/2/4
f 246/2/4 247/2/4 253/2/4
f 253/2/4 247/2/4 254/2/4
f 251/1/4 252/1/4 255/1/4
f 255/1/4 252/1/4 256/1/4
f 257/2/4 258/2/4 261/2/4
f 261/2/4 258/2/4 262/2/4
f 259/2/4 260/2/4 263/2/4
f 263/2/4 260/2/4 264/2/4
f 265/2/4 266/2/4 269/2/4
f 269/2/4 266/2/4 270/2/4
f 267/2/4 268/2/4 271/2/4
f 271/2/4 268/2/4 272/2/4
f 273/2/4 274/2/4 275/2/4
f 275/2/4 274/2/4 276/2/4
f 277/2/4 278/2/4 279/2/4
f 279/2/4 278/2/4 280/2/4
f 285/2/5 282/2/5 281/2/5
f 286/2/5 282/2/5 285/2/5
f 287/2/5 284/2/5 283/2/5
f 288/2/5 284/2/5 287/2/5
f 293/2/5 290/2/5 289/2/5
f 294/2/5 290/2/5 293/2/5
f 295/2/5 292/2/5 291/2/5
f 296/2/5 292/2/5 295/2/5
f 301/2/5 298/2/5 297/2/5
f 302/2/5 298/2/5 301/2/5
f 303/2/5 300/2/5 299/2/5
f 304/2/5 300/2/5 303/2/5
f 309/2/5 306/2/5 305/2/5
f 310/2/5 306/2/5 309/2/5
f 311/2/5 308/2/5 307/2/5
f 312/2/5 308/2/5 311/2/5
f 317/1/5 314/1/5 313/1/5
f 318/1/5 314/1/5 317/1/5
f 319/1/5 316/1/5 315/1/5
f 320/1/5 316/1/5 319/1/5
f 325/2/5 322/2/5 321/2/5
f 326/2/5 322/2/5 325/2/5
f 327/2/5 324/2/5 323/2/5
f 328/2/5 324/2/5 327/2/5
f 333/1/5 330/1/5 329/1/5
f 334/1/5 330/1/5 333/1/5
f 335/1/5 332/1/5 331/1/5
f 336/1/5 332/1/5 335/1/5
f 341/1/5 338/1/5 337/1/5
f 342/1/5 338/1/5 341/1/5
f 343/1/5 340/1/5 339/1/5
f 344/1/5 340/1/5 343/1/5
f 349/1/5 346/1/5 345/1/5
f 350/1/5 346/1/5 349/1/5
f 351/1/5 348/1/5 347/1/5
f 352/1/5 348/1/5 351/1/5
f 355/2/5 354/2/5 353/2/5
f 356/2/5 354/2/5 355/2/5
f 357/2/6 358/2/6 361/2/6
f 361/2/6 358/2/6 362/2/6
f 359/2/6 360/2/6 363/2/6
f 363/2/6 360/2/6 364/2/6
f 365/1/6 366/1/6 369/1/6
f 369/1/6 366/1/6 370/1/6
f 367/1/6 368/1/6 371/1/6
f 371/1/6 368/1/6 372/1/6
f 373/2/6 374/2/6 377/2/6
f 377/2/6 374/2/6 378/2/6
f 375/2/6 376/2/6 379/2/6
f 379/2/6 376/2/6 380/2/6
f 381/2/6 382/2/6 385/2/6
f 385/2/6 382/2/6 386/2/6
f 383/2/6 384/2/6 387/2/6
f 387/2/6 384/2/6 388/2/6
f 389/2/6 390/2/6 393/2/6
f 393/2/6 390/2/6 394/2/6
f 391/2/6 392/2/6 395/2/6
f 395/2/6 392/2/6 396/2/6
f 397/2/6 398/2/6 401/2/6
f 401/2/6 398/2/6 402/2/6
f 399/2/6 400/2/6 403/2/6
f 403/2/6 400/2/6 404/2/6
f 405/2/6 406/2/6 409/2/6
f 409/2/6 406/2/6 410/2/6
f 407/2/6 408/2/6 411/2/6
f 411/2/6 408/2/6 412/2/6
f 413/2/6 414/2/6 417/2/6
f 417/2/6 414/2/6 418/2/6
f 415/2/6 416/2/6 419/2/6
f 419/2/6 416/2/6 420/2/6
f 421/2/6 422/2/6 423/2/6
f 423/2/6 422/2/6 424/2/6
