# MagicaVoxel @ Ephtracy

# group
o 

# material
mtllib museum - warhammer.mtl
usemtl palette

# normals
vn -1 0 0
vn 1 0 0
vn 0 0 1
vn 0 0 -1
vn 0 -1 0
vn 0 1 0

# texcoords
vt 0.982422 0.5
vt 0.986328 0.5
vt 0.990234 0.5

# verts
v 4.8 6.5 -4.4
v 4.8 6.5 -5.6
v 4.8 7.5 -4.4
v 4.8 7.5 -5.6
v 5.8 2 -4.8
v 5.8 2 -5.2
v 5.8 6.6 -4.8
v 5.8 6.6 -5.2
v 5.9 7.4 -4.9
v 5.9 7.4 -5.1
v 5.9 7.5 -4.9
v 5.9 7.5 -5.1
v 6.1 6.6 -4.5
v 6.1 6.6 -4.8
v 6.1 6.6 -5.2
v 6.1 6.6 -5.5
v 6.1 6.7 -4.7
v 6.1 6.7 -4.8
v 6.1 6.7 -5.2
v 6.1 6.7 -5.3
v 6.1 7.3 -4.7
v 6.1 7.3 -4.9
v 6.1 7.3 -5.1
v 6.1 7.3 -5.3
v 6.1 7.4 -4.5
v 6.1 7.4 -4.9
v 6.1 7.4 -5.1
v 6.1 7.4 -5.5
v 7.1 6.5 -4.4
v 7.1 6.5 -5.6
v 7.1 6.6 -4.5
v 7.1 6.6 -5.5
v 7.1 7.4 -4.5
v 7.1 7.4 -5.5
v 7.1 7.5 -4.4
v 7.1 7.5 -5.6
v 4.9 6.5 -4.4
v 4.9 6.5 -5.6
v 4.9 6.6 -4.5
v 4.9 6.6 -5.5
v 4.9 7.4 -4.5
v 4.9 7.4 -5.5
v 4.9 7.5 -4.4
v 4.9 7.5 -5.6
v 5.9 6.6 -4.5
v 5.9 6.6 -4.8
v 5.9 6.6 -5.2
v 5.9 6.6 -5.5
v 5.9 6.7 -4.7
v 5.9 6.7 -4.8
v 5.9 6.7 -5.2
v 5.9 6.7 -5.3
v 5.9 7.3 -4.7
v 5.9 7.3 -4.9
v 5.9 7.3 -5.1
v 5.9 7.3 -5.3
v 5.9 7.4 -4.5
v 5.9 7.4 -4.9
v 5.9 7.4 -5.1
v 5.9 7.4 -5.5
v 6.1 7.4 -4.9
v 6.1 7.4 -5.1
v 6.1 7.5 -4.9
v 6.1 7.5 -5.1
v 6.2 2 -4.8
v 6.2 2 -5.2
v 6.2 6.6 -4.8
v 6.2 6.6 -5.2
v 7.2 6.5 -4.4
v 7.2 6.5 -5.6
v 7.2 7.5 -4.4
v 7.2 7.5 -5.6
v 4.8 6.5 -4.4
v 4.8 7.5 -4.4
v 4.9 6.5 -4.4
v 4.9 7.5 -4.4
v 7.1 6.5 -4.4
v 7.1 7.5 -4.4
v 7.2 6.5 -4.4
v 7.2 7.5 -4.4
v 4.9 6.6 -4.5
v 4.9 7.4 -4.5
v 5.9 6.6 -4.5
v 5.9 7.4 -4.5
v 6.1 6.6 -4.5
v 6.1 7.4 -4.5
v 7.1 6.6 -4.5
v 7.1 7.4 -4.5
v 5.9 6.7 -4.7
v 5.9 7.3 -4.7
v 6.1 6.7 -4.7
v 6.1 7.3 -4.7
v 5.8 2 -4.8
v 5.8 6.6 -4.8
v 5.9 6.6 -4.8
v 5.9 6.7 -4.8
v 6.1 6.6 -4.8
v 6.1 6.7 -4.8
v 6.2 2 -4.8
v 6.2 6.6 -4.8
v 5.9 7.3 -4.9
v 5.9 7.4 -4.9
v 5.9 7.5 -4.9
v 6.1 7.3 -4.9
v 6.1 7.4 -4.9
v 6.1 7.5 -4.9
v 5.9 7.3 -5.1
v 5.9 7.4 -5.1
v 5.9 7.5 -5.1
v 6.1 7.3 -5.1
v 6.1 7.4 -5.1
v 6.1 7.5 -5.1
v 5.8 2 -5.2
v 5.8 6.6 -5.2
v 5.9 6.6 -5.2
v 5.9 6.7 -5.2
v 6.1 6.6 -5.2
v 6.1 6.7 -5.2
v 6.2 2 -5.2
v 6.2 6.6 -5.2
v 5.9 6.7 -5.3
v 5.9 7.3 -5.3
v 6.1 6.7 -5.3
v 6.1 7.3 -5.3
v 4.9 6.6 -5.5
v 4.9 7.4 -5.5
v 5.9 6.6 -5.5
v 5.9 7.4 -5.5
v 6.1 6.6 -5.5
v 6.1 7.4 -5.5
v 7.1 6.6 -5.5
v 7.1 7.4 -5.5
v 4.8 6.5 -5.6
v 4.8 7.5 -5.6
v 4.9 6.5 -5.6
v 4.9 7.5 -5.6
v 7.1 6.5 -5.6
v 7.1 7.5 -5.6
v 7.2 6.5 -5.6
v 7.2 7.5 -5.6
v 5.8 2 -4.8
v 6.2 2 -4.8
v 5.8 2 -5.2
v 6.2 2 -5.2
v 4.8 6.5 -4.4
v 4.9 6.5 -4.4
v 7.1 6.5 -4.4
v 7.2 6.5 -4.4
v 4.8 6.5 -5.6
v 4.9 6.5 -5.6
v 7.1 6.5 -5.6
v 7.2 6.5 -5.6
v 4.9 6.6 -4.5
v 5.9 6.6 -4.5
v 6.1 6.6 -4.5
v 7.1 6.6 -4.5
v 5.8 6.6 -4.8
v 5.9 6.6 -4.8
v 6.1 6.6 -4.8
v 6.2 6.6 -4.8
v 5.8 6.6 -5.2
v 5.9 6.6 -5.2
v 6.1 6.6 -5.2
v 6.2 6.6 -5.2
v 4.9 6.6 -5.5
v 5.9 6.6 -5.5
v 6.1 6.6 -5.5
v 7.1 6.6 -5.5
v 5.9 6.7 -4.7
v 6.1 6.7 -4.7
v 5.9 6.7 -4.8
v 6.1 6.7 -4.8
v 5.9 6.7 -5.2
v 6.1 6.7 -5.2
v 5.9 6.7 -5.3
v 6.1 6.7 -5.3
v 5.9 7.3 -4.7
v 6.1 7.3 -4.7
v 5.9 7.3 -4.9
v 6.1 7.3 -4.9
v 5.9 7.3 -5.1
v 6.1 7.3 -5.1
v 5.9 7.3 -5.3
v 6.1 7.3 -5.3
v 4.9 7.4 -4.5
v 5.9 7.4 -4.5
v 6.1 7.4 -4.5
v 7.1 7.4 -4.5
v 5.9 7.4 -4.9
v 6.1 7.4 -4.9
v 5.9 7.4 -5.1
v 6.1 7.4 -5.1
v 4.9 7.4 -5.5
v 5.9 7.4 -5.5
v 6.1 7.4 -5.5
v 7.1 7.4 -5.5
v 4.8 7.5 -4.4
v 4.9 7.5 -4.4
v 7.1 7.5 -4.4
v 7.2 7.5 -4.4
v 5.9 7.5 -4.9
v 6.1 7.5 -4.9
v 5.9 7.5 -5.1
v 6.1 7.5 -5.1
v 4.8 7.5 -5.6
v 4.9 7.5 -5.6
v 7.1 7.5 -5.6
v 7.2 7.5 -5.6

# faces
f 3/3/1 2/3/1 1/3/1
f 4/3/1 2/3/1 3/3/1
f 7/3/1 6/3/1 5/3/1
f 8/3/1 6/3/1 7/3/1
f 11/3/1 10/3/1 9/3/1
f 12/3/1 10/3/1 11/3/1
f 17/2/1 14/2/1 13/2/1
f 18/2/1 14/2/1 17/2/1
f 19/2/1 16/2/1 15/2/1
f 20/2/1 16/2/1 19/2/1
f 21/2/1 17/2/1 13/2/1
f 24/2/1 16/2/1 20/2/1
f 25/2/1 22/2/1 21/2/1
f 25/2/1 21/2/1 13/2/1
f 26/2/1 22/2/1 25/2/1
f 27/2/1 24/2/1 23/2/1
f 28/2/1 16/2/1 24/2/1
f 28/2/1 24/2/1 27/2/1
f 31/3/1 30/3/1 29/3/1
f 32/3/1 30/3/1 31/3/1
f 33/3/1 31/3/1 29/3/1
f 34/3/1 30/3/1 32/3/1
f 35/3/1 33/3/1 29/3/1
f 35/3/1 34/3/1 33/3/1
f 36/3/1 30/3/1 34/3/1
f 36/3/1 34/3/1 35/3/1
f 37/3/2 38/3/2 39/3/2
f 39/3/2 38/3/2 40/3/2
f 37/3/2 39/3/2 41/3/2
f 40/3/2 38/3/2 42/3/2
f 37/3/2 41/3/2 43/3/2
f 41/3/2 42/3/2 43/3/2
f 42/3/2 38/3/2 44/3/2
f 43/3/2 42/3/2 44/3/2
f 45/2/2 46/2/2 49/2/2
f 49/2/2 46/2/2 50/2/2
f 47/2/2 48/2/2 51/2/2
f 51/2/2 48/2/2 52/2/2
f 45/2/2 49/2/2 53/2/2
f 52/2/2 48/2/2 56/2/2
f 53/2/2 54/2/2 57/2/2
f 45/2/2 53/2/2 57/2/2
f 57/2/2 54/2/2 58/2/2
f 55/2/2 56/2/2 59/2/2
f 56/2/2 48/2/2 60/2/2
f 59/2/2 56/2/2 60/2/2
f 61/3/2 62/3/2 63/3/2
f 63/3/2 62/3/2 64/3/2
f 65/3/2 66/3/2 67/3/2
f 67/3/2 66/3/2 68/3/2
f 69/3/2 70/3/2 71/3/2
f 71/3/2 70/3/2 72/3/2
f 75/3/3 74/3/3 73/3/3
f 76/3/3 74/3/3 75/3/3
f 79/3/3 78/3/3 77/3/3
f 80/3/3 78/3/3 79/3/3
f 83/2/3 82/2/3 81/2/3
f 84/2/3 82/2/3 83/2/3
f 87/2/3 86/2/3 85/2/3
f 88/2/3 86/2/3 87/2/3
f 91/1/3 90/1/3 89/1/3
f 92/1/3 90/1/3 91/1/3
f 95/3/3 94/3/3 93/3/3
f 97/3/3 95/3/3 93/3/3
f 97/3/3 96/3/3 95/3/3
f 98/3/3 96/3/3 97/3/3
f 99/3/3 97/3/3 93/3/3
f 100/3/3 97/3/3 99/3/3
f 104/3/3 102/3/3 101/3/3
f 104/3/3 103/3/3 102/3/3
f 105/3/3 103/3/3 104/3/3
f 106/3/3 103/3/3 105/3/3
f 107/3/4 108/3/4 110/3/4
f 108/3/4 109/3/4 110/3/4
f 110/3/4 109/3/4 111/3/4
f 111/3/4 109/3/4 112/3/4
f 113/3/4 114/3/4 115/3/4
f 113/3/4 115/3/4 117/3/4
f 115/3/4 116/3/4 117/3/4
f 117/3/4 116/3/4 118/3/4
f 113/3/4 117/3/4 119/3/4
f 119/3/4 117/3/4 120/3/4
f 121/1/4 122/1/4 123/1/4
f 123/1/4 122/1/4 124/1/4
f 125/2/4 126/2/4 127/2/4
f 127/2/4 126/2/4 128/2/4
f 129/2/4 130/2/4 131/2/4
f 131/2/4 130/2/4 132/2/4
f 133/3/4 134/3/4 135/3/4
f 135/3/4 134/3/4 136/3/4
f 137/3/4 138/3/4 139/3/4
f 139/3/4 138/3/4 140/3/4
f 143/3/5 142/3/5 141/3/5
f 144/3/5 142/3/5 143/3/5
f 149/3/5 146/3/5 145/3/5
f 150/3/5 146/3/5 149/3/5
f 151/3/5 148/3/5 147/3/5
f 152/3/5 148/3/5 151/3/5
f 157/2/5 154/2/5 153/2/5
f 158/2/5 154/2/5 157/2/5
f 159/2/5 156/2/5 155/2/5
f 160/2/5 156/2/5 159/2/5
f 161/2/5 157/2/5 153/2/5
f 164/2/5 156/2/5 160/2/5
f 165/2/5 162/2/5 161/2/5
f 165/2/5 161/2/5 153/2/5
f 166/2/5 162/2/5 165/2/5
f 167/2/5 164/2/5 163/2/5
f 168/2/5 156/2/5 164/2/5
f 168/2/5 164/2/5 167/2/5
f 171/1/5 170/1/5 169/1/5
f 172/1/5 170/1/5 171/1/5
f 175/1/5 174/1/5 173/1/5
f 176/1/5 174/1/5 175/1/5
f 177/1/6 178/1/6 179/1/6
f 179/1/6 178/1/6 180/1/6
f 181/1/6 182/1/6 183/1/6
f 183/1/6 182/1/6 184/1/6
f 185/2/6 186/2/6 189/2/6
f 187/2/6 188/2/6 190/2/6
f 185/2/6 189/2/6 191/2/6
f 190/2/6 188/2/6 192/2/6
f 185/2/6 191/2/6 193/2/6
f 193/2/6 191/2/6 194/2/6
f 192/2/6 188/2/6 195/2/6
f 195/2/6 188/2/6 196/2/6
f 201/3/6 202/3/6 203/3/6
f 203/3/6 202/3/6 204/3/6
f 197/3/6 198/3/6 205/3/6
f 205/3/6 198/3/6 206/3/6
f 199/3/6 200/3/6 207/3/6
f 207/3/6 200/3/6 208/3/6
