# MagicaVoxel @ Ephtracy

# group
g shopping - necklace

# material
mtllib shopping - necklace.mtl
usemtl palette

# normals
vn -1 0 0
vn 1 0 0
vn 0 -1 0
vn 0 1 0
vn 0 0 -1
vn 0 0 1

# texcoords
vt 0.0449219 0.5
vt 0.279297 0.5
vt 0.611328 0.5
vt 0.802734 0.5

# verts
v 49 47 126
v 49 48 126
v 49 47 127
v 49 48 127
v 50 46 126
v 50 47 126
v 50 48 126
v 50 49 126
v 50 46 127
v 50 47 127
v 50 48 127
v 50 49 127
v 51 45 126
v 51 46 126
v 51 49 126
v 51 50 126
v 51 45 127
v 51 46 127
v 51 49 127
v 51 50 127
v 52 44 126
v 52 45 126
v 52 50 126
v 52 51 126
v 52 44 127
v 52 45 127
v 52 50 127
v 52 51 127
v 53 42 126
v 53 44 126
v 53 51 126
v 53 52 126
v 53 42 127
v 53 44 127
v 53 51 127
v 53 52 127
v 54 52 126
v 54 53 126
v 54 42 127
v 54 44 127
v 54 52 127
v 54 53 127
v 54 42 128
v 54 44 128
v 56 51 126
v 56 52 126
v 56 51 127
v 56 52 127
v 57 44 126
v 57 45 126
v 57 50 126
v 57 51 126
v 57 44 127
v 57 45 127
v 57 50 127
v 57 51 127
v 58 45 126
v 58 46 126
v 58 49 126
v 58 50 126
v 58 45 127
v 58 46 127
v 58 49 127
v 58 50 127
v 59 46 126
v 59 47 126
v 59 48 126
v 59 49 126
v 59 46 127
v 59 47 127
v 59 48 127
v 59 49 127
v 60 47 126
v 60 48 126
v 60 47 127
v 60 48 127
v 50 47 126
v 50 48 126
v 50 47 127
v 50 48 127
v 51 46 126
v 51 47 126
v 51 48 126
v 51 49 126
v 51 46 127
v 51 47 127
v 51 48 127
v 51 49 127
v 52 45 126
v 52 46 126
v 52 49 126
v 52 50 126
v 52 45 127
v 52 46 127
v 52 49 127
v 52 50 127
v 53 44 126
v 53 45 126
v 53 50 126
v 53 51 126
v 53 44 127
v 53 45 127
v 53 50 127
v 53 51 127
v 54 51 126
v 54 52 126
v 54 51 127
v 54 52 127
v 56 52 126
v 56 53 126
v 56 42 127
v 56 44 127
v 56 52 127
v 56 53 127
v 56 42 128
v 56 44 128
v 57 42 126
v 57 44 126
v 57 51 126
v 57 52 126
v 57 42 127
v 57 44 127
v 57 51 127
v 57 52 127
v 58 44 126
v 58 45 126
v 58 50 126
v 58 51 126
v 58 44 127
v 58 45 127
v 58 50 127
v 58 51 127
v 59 45 126
v 59 46 126
v 59 49 126
v 59 50 126
v 59 45 127
v 59 46 127
v 59 49 127
v 59 50 127
v 60 46 126
v 60 47 126
v 60 48 126
v 60 49 126
v 60 46 127
v 60 47 127
v 60 48 127
v 60 49 127
v 61 47 126
v 61 48 126
v 61 47 127
v 61 48 127
v 53 42 126
v 53 42 127
v 54 42 126
v 54 42 127
v 54 42 128
v 56 42 126
v 56 42 127
v 56 42 128
v 57 42 126
v 57 42 127
v 52 44 126
v 52 44 127
v 53 44 126
v 53 44 127
v 57 44 126
v 57 44 127
v 58 44 126
v 58 44 127
v 51 45 126
v 51 45 127
v 52 45 126
v 52 45 127
v 58 45 126
v 58 45 127
v 59 45 126
v 59 45 127
v 50 46 126
v 50 46 127
v 51 46 126
v 51 46 127
v 59 46 126
v 59 46 127
v 60 46 126
v 60 46 127
v 49 47 126
v 49 47 127
v 50 47 126
v 50 47 127
v 60 47 126
v 60 47 127
v 61 47 126
v 61 47 127
v 50 48 126
v 50 48 127
v 51 48 126
v 51 48 127
v 59 48 126
v 59 48 127
v 60 48 126
v 60 48 127
v 51 49 126
v 51 49 127
v 52 49 126
v 52 49 127
v 58 49 126
v 58 49 127
v 59 49 126
v 59 49 127
v 52 50 126
v 52 50 127
v 53 50 126
v 53 50 127
v 57 50 126
v 57 50 127
v 58 50 126
v 58 50 127
v 53 51 126
v 53 51 127
v 54 51 126
v 54 51 127
v 56 51 126
v 56 51 127
v 57 51 126
v 57 51 127
v 54 52 126
v 54 52 127
v 56 52 126
v 56 52 127
v 53 44 126
v 53 44 127
v 54 44 126
v 54 44 127
v 54 44 128
v 56 44 126
v 56 44 127
v 56 44 128
v 57 44 126
v 57 44 127
v 52 45 126
v 52 45 127
v 53 45 126
v 53 45 127
v 57 45 126
v 57 45 127
v 58 45 126
v 58 45 127
v 51 46 126
v 51 46 127
v 52 46 126
v 52 46 127
v 58 46 126
v 58 46 127
v 59 46 126
v 59 46 127
v 50 47 126
v 50 47 127
v 51 47 126
v 51 47 127
v 59 47 126
v 59 47 127
v 60 47 126
v 60 47 127
v 49 48 126
v 49 48 127
v 50 48 126
v 50 48 127
v 60 48 126
v 60 48 127
v 61 48 126
v 61 48 127
v 50 49 126
v 50 49 127
v 51 49 126
v 51 49 127
v 59 49 126
v 59 49 127
v 60 49 126
v 60 49 127
v 51 50 126
v 51 50 127
v 52 50 126
v 52 50 127
v 58 50 126
v 58 50 127
v 59 50 126
v 59 50 127
v 52 51 126
v 52 51 127
v 53 51 126
v 53 51 127
v 57 51 126
v 57 51 127
v 58 51 126
v 58 51 127
v 53 52 126
v 53 52 127
v 54 52 126
v 54 52 127
v 56 52 126
v 56 52 127
v 57 52 126
v 57 52 127
v 54 53 126
v 54 53 127
v 56 53 126
v 56 53 127
v 53 42 126
v 54 42 126
v 56 42 126
v 57 42 126
v 52 44 126
v 53 44 126
v 54 44 126
v 56 44 126
v 57 44 126
v 58 44 126
v 51 45 126
v 52 45 126
v 53 45 126
v 57 45 126
v 58 45 126
v 59 45 126
v 50 46 126
v 51 46 126
v 52 46 126
v 58 46 126
v 59 46 126
v 60 46 126
v 49 47 126
v 50 47 126
v 51 47 126
v 59 47 126
v 60 47 126
v 61 47 126
v 49 48 126
v 50 48 126
v 51 48 126
v 59 48 126
v 60 48 126
v 61 48 126
v 50 49 126
v 51 49 126
v 52 49 126
v 58 49 126
v 59 49 126
v 60 49 126
v 51 50 126
v 52 50 126
v 53 50 126
v 57 50 126
v 58 50 126
v 59 50 126
v 52 51 126
v 53 51 126
v 54 51 126
v 56 51 126
v 57 51 126
v 58 51 126
v 53 52 126
v 54 52 126
v 56 52 126
v 57 52 126
v 54 53 126
v 56 53 126
v 53 42 127
v 54 42 127
v 56 42 127
v 57 42 127
v 52 44 127
v 53 44 127
v 54 44 127
v 56 44 127
v 57 44 127
v 58 44 127
v 51 45 127
v 52 45 127
v 53 45 127
v 57 45 127
v 58 45 127
v 59 45 127
v 50 46 127
v 51 46 127
v 52 46 127
v 58 46 127
v 59 46 127
v 60 46 127
v 49 47 127
v 50 47 127
v 51 47 127
v 59 47 127
v 60 47 127
v 61 47 127
v 49 48 127
v 50 48 127
v 51 48 127
v 59 48 127
v 60 48 127
v 61 48 127
v 50 49 127
v 51 49 127
v 52 49 127
v 58 49 127
v 59 49 127
v 60 49 127
v 51 50 127
v 52 50 127
v 53 50 127
v 57 50 127
v 58 50 127
v 59 50 127
v 52 51 127
v 53 51 127
v 54 51 127
v 56 51 127
v 57 51 127
v 58 51 127
v 53 52 127
v 54 52 127
v 56 52 127
v 57 52 127
v 54 53 127
v 56 53 127
v 54 42 128
v 56 42 128
v 54 44 128
v 56 44 128

# faces
f 3/1/1 2/1/1 1/1/1
f 4/1/1 2/1/1 3/1/1
f 9/1/1 6/1/1 5/1/1
f 10/1/1 6/1/1 9/1/1
f 11/1/1 8/1/1 7/1/1
f 12/1/1 8/1/1 11/1/1
f 17/1/1 14/1/1 13/1/1
f 18/1/1 14/1/1 17/1/1
f 19/1/1 16/1/1 15/1/1
f 20/1/1 16/1/1 19/1/1
f 25/1/1 22/1/1 21/1/1
f 26/1/1 22/1/1 25/1/1
f 27/1/1 24/1/1 23/1/1
f 28/1/1 24/1/1 27/1/1
f 33/4/1 30/4/1 29/4/1
f 34/4/1 30/4/1 33/4/1
f 35/1/1 32/1/1 31/1/1
f 36/1/1 32/1/1 35/1/1
f 41/1/1 38/1/1 37/1/1
f 42/1/1 38/1/1 41/1/1
f 43/2/1 40/2/1 39/2/1
f 44/2/1 40/2/1 43/2/1
f 47/1/1 46/1/1 45/1/1
f 48/1/1 46/1/1 47/1/1
f 53/1/1 50/1/1 49/1/1
f 54/1/1 50/1/1 53/1/1
f 55/1/1 52/1/1 51/1/1
f 56/1/1 52/1/1 55/1/1
f 61/1/1 58/1/1 57/1/1
f 62/1/1 58/1/1 61/1/1
f 63/1/1 60/1/1 59/1/1
f 64/1/1 60/1/1 63/1/1
f 69/1/1 66/1/1 65/1/1
f 70/1/1 66/1/1 69/1/1
f 71/1/1 68/1/1 67/1/1
f 72/1/1 68/1/1 71/1/1
f 75/1/1 74/1/1 73/1/1
f 76/1/1 74/1/1 75/1/1
f 77/1/2 78/1/2 79/1/2
f 79/1/2 78/1/2 80/1/2
f 81/1/2 82/1/2 85/1/2
f 85/1/2 82/1/2 86/1/2
f 83/1/2 84/1/2 87/1/2
f 87/1/2 84/1/2 88/1/2
f 89/1/2 90/1/2 93/1/2
f 93/1/2 90/1/2 94/1/2
f 91/1/2 92/1/2 95/1/2
f 95/1/2 92/1/2 96/1/2
f 97/1/2 98/1/2 101/1/2
f 101/1/2 98/1/2 102/1/2
f 99/1/2 100/1/2 103/1/2
f 103/1/2 100/1/2 104/1/2
f 105/1/2 106/1/2 107/1/2
f 107/1/2 106/1/2 108/1/2
f 109/1/2 110/1/2 113/1/2
f 113/1/2 110/1/2 114/1/2
f 111/2/2 112/2/2 115/2/2
f 115/2/2 112/2/2 116/2/2
f 117/4/2 118/4/2 121/4/2
f 121/4/2 118/4/2 122/4/2
f 119/1/2 120/1/2 123/1/2
f 123/1/2 120/1/2 124/1/2
f 125/1/2 126/1/2 129/1/2
f 129/1/2 126/1/2 130/1/2
f 127/1/2 128/1/2 131/1/2
f 131/1/2 128/1/2 132/1/2
f 133/1/2 134/1/2 137/1/2
f 137/1/2 134/1/2 138/1/2
f 135/1/2 136/1/2 139/1/2
f 139/1/2 136/1/2 140/1/2
f 141/1/2 142/1/2 145/1/2
f 145/1/2 142/1/2 146/1/2
f 143/1/2 144/1/2 147/1/2
f 147/1/2 144/1/2 148/1/2
f 149/1/2 150/1/2 151/1/2
f 151/1/2 150/1/2 152/1/2
f 155/4/3 154/4/3 153/4/3
f 156/4/3 154/4/3 155/4/3
f 158/3/3 156/3/3 155/3/3
f 159/2/3 157/2/3 156/2/3
f 159/3/3 156/3/3 158/3/3
f 160/2/3 157/2/3 159/2/3
f 161/4/3 159/4/3 158/4/3
f 162/4/3 159/4/3 161/4/3
f 165/1/3 164/1/3 163/1/3
f 166/1/3 164/1/3 165/1/3
f 169/1/3 168/1/3 167/1/3
f 170/1/3 168/1/3 169/1/3
f 173/1/3 172/1/3 171/1/3
f 174/1/3 172/1/3 173/1/3
f 177/1/3 176/1/3 175/1/3
f 178/1/3 176/1/3 177/1/3
f 181/1/3 180/1/3 179/1/3
f 182/1/3 180/1/3 181/1/3
f 185/1/3 184/1/3 183/1/3
f 186/1/3 184/1/3 185/1/3
f 189/1/3 188/1/3 187/1/3
f 190/1/3 188/1/3 189/1/3
f 193/1/3 192/1/3 191/1/3
f 194/1/3 192/1/3 193/1/3
f 197/1/3 196/1/3 195/1/3
f 198/1/3 196/1/3 197/1/3
f 201/1/3 200/1/3 199/1/3
f 202/1/3 200/1/3 201/1/3
f 205/1/3 204/1/3 203/1/3
f 206/1/3 204/1/3 205/1/3
f 209/1/3 208/1/3 207/1/3
f 210/1/3 208/1/3 209/1/3
f 213/1/3 212/1/3 211/1/3
f 214/1/3 212/1/3 213/1/3
f 217/1/3 216/1/3 215/1/3
f 218/1/3 216/1/3 217/1/3
f 221/1/3 220/1/3 219/1/3
f 222/1/3 220/1/3 221/1/3
f 225/1/3 224/1/3 223/1/3
f 226/1/3 224/1/3 225/1/3
f 229/1/3 228/1/3 227/1/3
f 230/1/3 228/1/3 229/1/3
f 231/4/4 232/4/4 233/4/4
f 233/4/4 232/4/4 234/4/4
f 233/3/4 234/3/4 236/3/4
f 234/2/4 235/2/4 237/2/4
f 236/3/4 234/3/4 237/3/4
f 237/2/4 235/2/4 238/2/4
f 236/4/4 237/4/4 239/4/4
f 239/4/4 237/4/4 240/4/4
f 241/1/4 242/1/4 243/1/4
f 243/1/4 242/1/4 244/1/4
f 245/1/4 246/1/4 247/1/4
f 247/1/4 246/1/4 248/1/4
f 249/1/4 250/1/4 251/1/4
f 251/1/4 250/1/4 252/1/4
f 253/1/4 254/1/4 255/1/4
f 255/1/4 254/1/4 256/1/4
f 257/1/4 258/1/4 259/1/4
f 259/1/4 258/1/4 260/1/4
f 261/1/4 262/1/4 263/1/4
f 263/1/4 262/1/4 264/1/4
f 265/1/4 266/1/4 267/1/4
f 267/1/4 266/1/4 268/1/4
f 269/1/4 270/1/4 271/1/4
f 271/1/4 270/1/4 272/1/4
f 273/1/4 274/1/4 275/1/4
f 275/1/4 274/1/4 276/1/4
f 277/1/4 278/1/4 279/1/4
f 279/1/4 278/1/4 280/1/4
f 281/1/4 282/1/4 283/1/4
f 283/1/4 282/1/4 284/1/4
f 285/1/4 286/1/4 287/1/4
f 287/1/4 286/1/4 288/1/4
f 289/1/4 290/1/4 291/1/4
f 291/1/4 290/1/4 292/1/4
f 293/1/4 294/1/4 295/1/4
f 295/1/4 294/1/4 296/1/4
f 297/1/4 298/1/4 299/1/4
f 299/1/4 298/1/4 300/1/4
f 301/1/4 302/1/4 303/1/4
f 303/1/4 302/1/4 304/1/4
f 305/1/4 306/1/4 307/1/4
f 307/1/4 306/1/4 308/1/4
f 314/4/5 310/4/5 309/4/5
f 315/3/5 311/3/5 310/3/5
f 315/4/5 310/4/5 314/4/5
f 316/4/5 312/4/5 311/4/5
f 316/3/5 311/3/5 315/3/5
f 317/4/5 312/4/5 316/4/5
f 320/1/5 314/1/5 313/1/5
f 321/1/5 314/1/5 320/1/5
f 322/1/5 318/1/5 317/1/5
f 323/1/5 318/1/5 322/1/5
f 326/1/5 320/1/5 319/1/5
f 327/1/5 320/1/5 326/1/5
f 328/1/5 324/1/5 323/1/5
f 329/1/5 324/1/5 328/1/5
f 332/1/5 326/1/5 325/1/5
f 333/1/5 326/1/5 332/1/5
f 334/1/5 330/1/5 329/1/5
f 335/1/5 330/1/5 334/1/5
f 337/1/5 332/1/5 331/1/5
f 338/1/5 332/1/5 337/1/5
f 341/1/5 336/1/5 335/1/5
f 342/1/5 336/1/5 341/1/5
f 343/1/5 339/1/5 338/1/5
f 344/1/5 339/1/5 343/1/5
f 347/1/5 341/1/5 340/1/5
f 348/1/5 341/1/5 347/1/5
f 349/1/5 345/1/5 344/1/5
f 350/1/5 345/1/5 349/1/5
f 353/1/5 347/1/5 346/1/5
f 354/1/5 347/1/5 353/1/5
f 355/1/5 351/1/5 350/1/5
f 356/1/5 351/1/5 355/1/5
f 359/1/5 353/1/5 352/1/5
f 360/1/5 353/1/5 359/1/5
f 361/1/5 357/1/5 356/1/5
f 362/1/5 357/1/5 361/1/5
f 363/1/5 359/1/5 358/1/5
f 364/1/5 359/1/5 363/1/5
f 365/1/5 363/1/5 362/1/5
f 366/1/5 363/1/5 365/1/5
f 367/4/6 368/4/6 372/4/6
f 372/4/6 368/4/6 373/4/6
f 369/4/6 370/4/6 374/4/6
f 374/4/6 370/4/6 375/4/6
f 371/1/6 372/1/6 378/1/6
f 378/1/6 372/1/6 379/1/6
f 375/1/6 376/1/6 380/1/6
f 380/1/6 376/1/6 381/1/6
f 377/1/6 378/1/6 384/1/6
f 384/1/6 378/1/6 385/1/6
f 381/1/6 382/1/6 386/1/6
f 386/1/6 382/1/6 387/1/6
f 383/1/6 384/1/6 390/1/6
f 390/1/6 384/1/6 391/1/6
f 387/1/6 388/1/6 392/1/6
f 392/1/6 388/1/6 393/1/6
f 389/1/6 390/1/6 395/1/6
f 395/1/6 390/1/6 396/1/6
f 393/1/6 394/1/6 399/1/6
f 399/1/6 394/1/6 400/1/6
f 396/1/6 397/1/6 401/1/6
f 401/1/6 397/1/6 402/1/6
f 398/1/6 399/1/6 405/1/6
f 405/1/6 399/1/6 406/1/6
f 402/1/6 403/1/6 407/1/6
f 407/1/6 403/1/6 408/1/6
f 404/1/6 405/1/6 411/1/6
f 411/1/6 405/1/6 412/1/6
f 408/1/6 409/1/6 413/1/6
f 413/1/6 409/1/6 414/1/6
f 410/1/6 411/1/6 417/1/6
f 417/1/6 411/1/6 418/1/6
f 414/1/6 415/1/6 419/1/6
f 419/1/6 415/1/6 420/1/6
f 416/1/6 417/1/6 421/1/6
f 421/1/6 417/1/6 422/1/6
f 420/1/6 421/1/6 423/1/6
f 423/1/6 421/1/6 424/1/6
f 425/2/6 426/2/6 427/2/6
f 427/2/6 426/2/6 428/2/6
